<?xml version="1.0" encoding="utf-8"?>
<!-- Generator: Adobe Illustrator 15.0.2, SVG Export Plug-In  -->
<!DOCTYPE svg PUBLIC "-//W3C//DTD SVG 1.1//EN" "http://www.w3.org/Graphics/SVG/1.1/DTD/svg11.dtd" [
	<!ENTITY ns_flows "http://ns.adobe.com/Flows/1.0/">
]>
<svg version="1.1"
	 xmlns="http://www.w3.org/2000/svg" xmlns:xlink="http://www.w3.org/1999/xlink" xmlns:a="http://ns.adobe.com/AdobeSVGViewerExtensions/3.0/"
	 x="0px" y="0px" width="142px" height="142px" viewBox="-20.447 -43.927 142 142" enable-background="new -20.447 -43.927 142 142"
	 xml:space="preserve">
<defs>
</defs>
<path fill="#FFFFFF" d="M42.559,31.541c3.085,3.103,3.069,8.106-0.026,11.194l0,0c-3.097,3.083-8.106,3.074-11.189-0.022
	L2.307,13.546C-0.781,10.444-0.765,5.44,2.33,2.352l0,0c3.097-3.083,8.106-3.074,11.194,0.028L42.559,31.541z"/>
<path fill="#FFFFFF" d="M38.909,14.609c1.169,1.296,1.06,3.292-0.238,4.458l0,0c-1.296,1.167-3.292,1.056-4.458-0.241L23.24,6.609
	c-1.167-1.301-1.056-3.296,0.238-4.463l0,0c1.296-1.167,3.294-1.06,4.46,0.241L38.909,14.609z"/>
<path fill="#FFFFFF" d="M42.613,42.741c-3.074,3.105-8.087,3.133-11.194,0.061l0,0c-3.106-3.074-3.132-8.084-0.061-11.189
	L60.3,2.348c3.076-3.106,8.09-3.134,11.194-0.06l0,0c3.108,3.074,3.134,8.083,0.063,11.194L42.613,42.741z"/>
<path fill="#FFFFFF" d="M39.262,18.567c-1.104,1.273-3.028,1.403-4.294,0.296l0,0c-1.264-1.111-1.398-3.032-0.292-4.292
	L45.079,2.646c1.106-1.269,3.028-1.402,4.294-0.296l0,0c1.268,1.102,1.401,3.023,0.294,4.292L39.262,18.567z"/>
</svg>
